<svg width="1282" height="488" xmlns="http://www.w3.org/2000/svg" xmlns:xlink="http://www.w3.org/1999/xlink" overflow="hidden"><defs><clipPath id="clip0"><rect x="-1" y="1" width="1282" height="488"/></clipPath></defs><g clip-path="url(#clip0)" transform="translate(1 -1)"><path d="M0 328.217C18.1405 333.632 39.1337 325.802 55.4455 337.657 69.2702 347.683 81.9247 340.804 99.1874 348.415 110.891 353.538 117.694 374.761 130.787 381.713 143.076 388.153 161.655 380.542 172.773 379.957 194.498 378.786 207.957 352.66 229.974 350.903 269.693 347.757 291.125 315.849 323.603 310.58 374.293 302.383 370.197 247.716 400.407 251.156 451.098 256.864 487.159 320.899 536.753 334.803 576.472 346 619.117 311.678 658.689 323.753 716.183 341.316 759.925 404.473 817.638 420.647 844.921 428.331 870.523 370.443 898.026 377.176 973.441 395.618 970.295 362.466 1008.19 366.199 1046 369.931 1070.07 426.208 1106.79 414.353 1154.48 398.911 1174.67 311.019 1243.06 307.287 1255.57 306.628 1267.71 312.409 1280 314.971L1280 344.683C1254.18 349.074 1224.12 340.219 1202.39 357.929 1172.62 382.152 1167.28 439.162 1136.49 461.409 1116.52 475.826 1090.11 453.506 1066.92 455.921 1050.03 457.604 1035.03 471.435 1018.13 473.557 1008.04 474.875 998.457 465.654 988.363 465.873 978.707 466.02 969.93 475.607 960.347 474.655 943.231 472.972 927.651 454.896 910.681 458.116 881.641 463.678 873.229 442.528 852.895 447.139 841.849 449.627 839.216 463.532 821.295 461.482 806.812 459.799 796.644 481.974 782.454 485.706 771.774 488.487 760.875 479.851 749.977 480.217 739.224 480.583 729.057 488.999 718.377 487.901 706.6 486.73 696.433 476.997 684.949 473.557 665.345 467.776 636.599 480.803 625.334 460.311 616.337 444.065 611.07 453.066 606.389 445.968 600.098 436.527 608.437 415.158 593.734 412.962 576.618 410.401 578.739 402.131 566.67 401.912 560.306 401.839 553.723 406.522 547.725 404.107 536.46 399.643 528.341 386.543 517.003 382.079 506.324 377.908 493.669 384.568 483.575 378.786 465.288 368.248 453.658 343.658 434.786 334.73 423.741 329.534 411.379 339.121 399.529 339.121 379.341 339.121 358.933 330.412 339.036 334.73 318.994 339.048 316.58 360.051 291.71 362.539 275.106 364.223 276.788 385.153 265.816 392.032 260.184 395.618 252.065 390.788 246.871 395.325 234.948 405.79 231.73 434.698 217.1 434.99 202.325 435.283 196.473 454.091 185.428 443.699 180.454 439.088 176.211 432.209 170.14 430.526 157.778 427.233 144.392 433.746 132.177 429.428 120.619 425.33 112.866 410.986 101.455 406.303 95.1643 403.741 88.1422 409.596 81.559 408.498 65.3203 405.79 56.3232 372.346 40.0114 375.493 21.2127 379.152 13.3859 362.32 0 355.733L0 328.217Z" fill="#F9E4CF" fill-rule="evenodd"/><path d="M0 321.312C61.8021 334.684 122.8 366.98 185.407 361.573 258.326 355.216 323.054 294.057 395.9 286.97 440.587 282.659 481.399 322.262 525.94 328.546 563.753 333.88 602.663 312.178 639.963 321.312 696.719 335.195 744.698 388.974 802.258 396.354 853.236 402.93 902.092 360.843 953.363 361.573 1002.37 362.304 1048.37 410.31 1096.71 400.738 1140.89 391.97 1167.22 331.323 1208.69 311.082 1230.7 300.341 1256.23 311.082 1280 311.082L1280 2 0 2 0 321.312Z" fill="#4A8BCC" fill-rule="evenodd"/><path d="M0 218.464C61.8057 228.682 106.496 162.268 169.106 158.181 242.03 153.364 302.738 196.643 374.199 182.557 450.487 167.523 482.304 114.538 526.848 119.355 564.663 123.369 574.683 156.722 631.881 154.97 689.737 153.146 736.549 206.568 794.185 212.188 845.166 217.224 902.144 172.632 953.417 173.216 1002.42 173.727 1043.02 231.601 1091.29 224.376 1135.47 217.735 1171.75 187.082 1208.69 186.279 1232.46 185.768 1256.23 210.728 1280 210.728L1280 2 0 2 0 218.464Z" fill="#3D78B3" fill-rule="evenodd"/><path d="M1280 74.7217C1218.19 76.9783 1178.04 40.7994 1115.43 39.9259 1042.51 38.9069 977.335 69.9173 905.801 66.8599 829.513 63.5842 801.28 37.5238 756.809 38.6157 718.994 39.4892 705.39 61.182 648.192 60.818 590.263 60.3812 551.497 28.934 493.934 30.1714 442.953 31.2634 377.856 64.6033 326.583 64.7489 277.577 64.8217 230.693 95.541 182.345 93.9395 138.24 92.4836 108.251 67.8063 71.3143 67.5879 47.5429 67.5151 23.7714 72.9747 0 72.9747L0 2 1280 2 1280 74.7217Z" fill="#336699" fill-rule="evenodd"/><path d="M0 311.384C18.1405 315.84 39.1337 309.412 55.4455 319.127 69.2702 327.309 81.9247 321.684 99.1874 327.893 110.891 332.13 117.694 349.516 130.787 355.141 143.076 360.4 161.655 354.191 172.773 353.68 194.498 352.73 207.957 331.327 229.974 329.866 269.693 327.309 291.125 301.157 323.603 296.847 374.293 290.127 370.197 245.348 400.407 248.124 451.098 252.799 487.159 305.248 536.753 316.644 576.472 325.775 619.117 297.724 658.689 307.586 716.183 321.976 759.925 373.695 817.638 386.99 844.921 393.272 870.523 345.863 898.026 351.342 973.441 366.463 970.295 339.289 1008.19 342.284 1046 345.352 1070.07 391.446 1106.79 381.73 1154.48 369.093 1174.67 297.14 1243.06 294.072 1255.57 293.487 1267.71 298.308 1280 300.354L1280 324.679C1254.18 328.332 1224.12 321.027 1202.39 335.49 1172.62 355.36 1167.28 402.038 1136.49 420.3 1116.52 432.134 1090.11 413.872 1066.92 415.771 1050.03 417.159 1035.03 428.482 1018.13 430.162 1008.04 431.185 998.457 423.661 988.363 423.88 978.707 424.026 969.93 431.915 960.347 431.112 943.231 429.724 927.651 414.895 910.681 417.597 881.641 422.199 873.229 404.814 852.895 408.539 841.849 410.585 839.216 421.98 821.295 420.3 806.812 418.912 796.644 437.102 782.454 440.17 771.774 442.507 760.875 435.348 749.977 435.641 739.224 435.933 729.057 442.799 718.377 441.923 706.6 440.9 696.433 432.938 684.949 430.162 665.345 425.414 636.599 436.079 625.334 419.351 616.337 405.983 611.07 413.361 606.389 407.59 600.098 399.847 608.437 382.315 593.734 380.562 576.618 378.443 578.739 371.65 566.67 371.504 560.306 371.431 553.723 375.302 547.725 373.257 536.46 369.604 528.341 358.866 517.003 355.214 506.324 351.78 493.669 357.259 483.575 352.511 465.288 343.891 453.658 323.729 434.786 316.425 423.741 312.188 411.379 320.004 399.529 320.004 379.341 320.004 358.933 312.845 339.036 316.425 318.994 320.004 316.58 337.17 291.71 339.216 275.106 340.604 276.788 357.697 265.816 363.322 260.184 366.244 252.065 362.299 246.871 366.025 234.948 374.645 231.73 398.239 217.1 398.532 202.325 398.751 196.473 414.164 185.428 405.69 180.454 401.892 176.211 396.267 170.14 394.952 157.778 392.249 144.392 397.582 132.177 394.076 120.619 390.715 112.866 378.955 101.455 375.156 95.1643 373.038 88.1422 377.859 81.559 376.982 65.4666 375.01 56.3964 347.616 40.0846 350.173 21.2127 353.095 13.3859 339.362 0 333.956L0 311.384ZM640.549 311.019C666.955 307.22 717.207 338.047 717.207 344.621 717.207 351.196 671.197 320.004 635.136 316.79 599.074 313.503 579.032 329.208 579.032 322.634 579.032 316.059 614.143 314.891 640.549 311.019L640.549 311.019ZM411.159 255.356C421.327 255.356 438.151 263.391 438.151 270.038 438.151 276.613 418.84 265.436 408.672 265.436 398.505 265.436 386.436 266.167 386.436 259.519 386.436 252.872 400.992 255.356 411.159 255.356L411.159 255.356Z" fill="#FFFFFF" fill-rule="evenodd"/><path d="M30.8731 337.736C32.9213 337.736 34.6037 339.414 34.6037 341.456 34.6037 343.498 32.9213 345.176 30.8731 345.176 28.825 345.176 27.1426 343.498 27.1426 341.456 27.1426 339.414 28.825 337.736 30.8731 337.736L30.8731 337.736ZM1169.42 356.772C1170.96 356.772 1172.13 358.012 1172.13 359.471 1172.13 361.003 1170.96 362.17 1169.42 362.17 1167.96 362.17 1166.72 361.003 1166.72 359.471 1166.72 357.939 1167.96 356.772 1169.42 356.772L1169.42 356.772ZM1204.09 323.878C1205.63 323.878 1206.8 325.045 1206.8 326.577 1206.8 328.109 1205.63 329.276 1204.09 329.276 1202.63 329.276 1201.39 328.109 1201.39 326.577 1201.39 325.118 1202.56 323.878 1204.09 323.878L1204.09 323.878ZM1182.37 328.255C1182.88 328.255 1183.32 328.692 1183.32 329.203 1183.32 329.713 1182.88 330.151 1182.37 330.151 1181.86 330.151 1181.42 329.713 1181.42 329.203 1181.42 328.619 1181.86 328.255 1182.37 328.255L1182.37 328.255ZM1267.29 304.988C1268.76 304.988 1270 306.155 1270 307.687 1270 309.145 1268.83 310.385 1267.29 310.385 1265.76 310.385 1264.59 309.218 1264.59 307.687 1264.59 306.155 1265.83 304.988 1267.29 304.988L1267.29 304.988ZM1238.4 320.086C1239.42 320.086 1240.3 320.961 1240.3 321.982 1240.3 323.003 1239.5 323.878 1238.4 323.878 1237.38 323.878 1236.5 323.003 1236.5 321.982 1236.5 320.961 1237.38 320.086 1238.4 320.086L1238.4 320.086ZM1223.7 307.468C1224.72 307.468 1225.6 308.343 1225.6 309.364 1225.6 310.385 1224.72 311.261 1223.7 311.261 1222.67 311.261 1221.8 310.385 1221.8 309.364 1221.8 308.343 1222.67 307.468 1223.7 307.468L1223.7 307.468ZM1245.57 309.291C1246.08 309.291 1246.52 309.729 1246.52 310.239 1246.52 310.75 1246.08 311.188 1245.57 311.188 1245.06 311.188 1244.62 310.75 1244.62 310.239 1244.62 309.729 1245.06 309.291 1245.57 309.291L1245.57 309.291ZM1233.21 305.499C1236.43 305.499 1238.99 308.051 1238.99 311.261 1238.99 314.397 1236.43 317.023 1233.21 317.023 1229.99 317.023 1227.43 314.397 1227.43 311.261 1227.43 308.124 1229.99 305.499 1233.21 305.499L1233.21 305.499ZM1143.6 393.678C1145.06 393.678 1146.31 394.845 1146.31 396.377 1146.31 397.835 1145.14 399.075 1143.6 399.075 1142.06 399.075 1140.89 397.908 1140.89 396.377 1140.89 394.918 1142.06 393.678 1143.6 393.678L1143.6 393.678ZM1114.63 408.776C1115.66 408.776 1116.54 409.578 1116.54 410.672 1116.54 411.693 1115.73 412.568 1114.63 412.568 1113.61 412.568 1112.73 411.693 1112.73 410.672 1112.81 409.651 1113.61 408.776 1114.63 408.776L1114.63 408.776ZM1100 396.158C1101.03 396.158 1101.91 397.033 1101.91 398.054 1101.91 399.075 1101.03 399.951 1100 399.951 1098.98 399.951 1098.1 399.075 1098.1 398.054 1098.1 397.033 1098.98 396.158 1100 396.158L1100 396.158ZM1121.8 398.054C1122.31 398.054 1122.75 398.492 1122.75 399.002 1122.75 399.513 1122.31 399.951 1121.8 399.951 1121.29 399.951 1120.85 399.513 1120.85 399.002 1120.85 398.492 1121.29 398.054 1121.8 398.054L1121.8 398.054ZM1109.44 394.189C1112.66 394.189 1115.22 396.741 1115.22 399.951 1115.22 403.087 1112.66 405.713 1109.44 405.713 1106.22 405.713 1103.66 403.16 1103.66 399.951 1103.66 396.814 1106.29 394.189 1109.44 394.189L1109.44 394.189ZM1145.65 379.747C1148.87 379.747 1151.43 382.3 1151.43 385.509 1151.43 388.718 1148.87 391.271 1145.65 391.271 1142.43 391.271 1139.87 388.718 1139.87 385.509 1139.87 382.3 1142.5 379.747 1145.65 379.747L1145.65 379.747ZM830.966 394.553C834.111 394.553 836.745 397.106 836.745 400.315 836.745 403.524 834.111 406.077 830.966 406.077 827.747 406.077 825.187 403.524 825.187 400.315 825.187 397.179 827.747 394.553 830.966 394.553L830.966 394.553ZM991.526 365.744C992.55 365.744 993.354 366.619 993.354 367.64 993.354 368.661 992.55 369.536 991.526 369.536 990.502 369.536 989.624 368.661 989.624 367.64 989.624 366.619 990.502 365.744 991.526 365.744L991.526 365.744ZM998.694 354.949C999.206 354.949 999.645 355.387 999.645 355.897 999.645 356.408 999.206 356.845 998.694 356.845 998.182 356.845 997.743 356.408 997.743 355.897 997.743 355.387 998.182 354.949 998.694 354.949L998.694 354.949ZM955.976 381.571C956.415 381.352 957 381.571 957.219 382.008 957.439 382.446 957.219 383.029 956.78 383.248 956.341 383.467 955.756 383.248 955.537 382.811 955.244 382.373 955.464 381.789 955.976 381.571L955.976 381.571ZM918.963 401.555C920.426 401.555 921.669 402.795 921.669 404.254 921.669 405.713 920.426 406.952 918.963 406.952 917.5 406.952 916.256 405.713 916.256 404.254 916.256 402.795 917.5 401.555 918.963 401.555L918.963 401.555ZM910.917 379.018C911.429 379.018 911.868 379.456 911.868 379.966 911.868 380.477 911.429 380.914 910.917 380.914 910.405 380.914 909.966 380.477 909.966 379.966 909.966 379.383 910.405 379.018 910.917 379.018L910.917 379.018ZM890.581 397.835C891.606 397.835 892.483 398.638 892.483 399.732 892.483 400.753 891.679 401.628 890.581 401.628 889.557 401.628 888.753 400.753 888.753 399.732 888.68 398.638 889.557 397.835 890.581 397.835L890.581 397.835ZM897.75 387.041C898.262 387.041 898.701 387.478 898.701 387.989 898.701 388.5 898.262 388.937 897.75 388.937 897.238 388.937 896.799 388.5 896.799 387.989 896.799 387.478 897.238 387.041 897.75 387.041L897.75 387.041ZM900.603 372.162C903.748 372.162 906.381 374.715 906.381 377.924 906.381 381.133 903.821 383.686 900.603 383.686 897.384 383.686 894.824 381.133 894.824 377.924 894.824 374.715 897.384 372.162 900.603 372.162L900.603 372.162ZM953.854 395.793C955.391 395.793 956.561 396.96 956.561 398.492 956.561 400.023 955.391 401.19 953.854 401.19 952.392 401.19 951.148 400.023 951.148 398.492 951.148 397.033 952.392 395.793 953.854 395.793L953.854 395.793ZM947.93 379.456C948.441 379.456 948.88 379.893 948.88 380.404 948.88 380.914 948.441 381.352 947.93 381.352 947.417 381.352 946.979 380.914 946.979 380.404 946.979 379.893 947.417 379.456 947.93 379.456L947.93 379.456ZM945.296 392.073C945.808 392.073 946.247 392.511 946.247 393.022 946.247 393.532 945.808 393.97 945.296 393.97 944.784 393.97 944.345 393.532 944.345 393.022 944.345 392.438 944.784 392.073 945.296 392.073L945.296 392.073ZM924.961 410.891C925.985 410.891 926.863 411.693 926.863 412.787 926.863 413.808 925.985 414.611 924.961 414.611 923.937 414.611 923.059 413.808 923.059 412.787 923.059 411.766 923.937 410.891 924.961 410.891L924.961 410.891ZM932.129 400.169C932.641 400.169 933.08 400.607 933.08 401.117 933.08 401.628 932.641 402.066 932.129 402.066 931.617 402.066 931.179 401.628 931.179 401.117 931.179 400.534 931.617 400.169 932.129 400.169L932.129 400.169ZM934.982 385.218C938.201 385.218 940.761 387.77 940.761 390.979 940.761 394.189 938.201 396.741 934.982 396.741 931.764 396.741 929.204 394.189 929.204 390.979 929.204 387.77 931.764 385.218 934.982 385.218L934.982 385.218ZM1077.69 396.377C1079.23 396.377 1080.4 397.544 1080.4 399.075 1080.4 400.607 1079.23 401.774 1077.69 401.774 1076.23 401.774 1074.99 400.607 1074.99 399.075 1074.99 397.544 1076.16 396.377 1077.69 396.377L1077.69 396.377ZM1071.77 379.966C1072.28 379.966 1072.72 380.404 1072.72 380.914 1072.72 381.425 1072.28 381.862 1071.77 381.862 1071.26 381.862 1070.82 381.425 1070.82 380.914 1070.82 380.404 1071.26 379.966 1071.77 379.966L1071.77 379.966ZM1069.14 392.584C1069.65 392.584 1070.09 393.022 1070.09 393.532 1070.09 394.043 1069.65 394.48 1069.14 394.48 1068.62 394.48 1068.18 394.043 1068.18 393.532 1068.18 393.022 1068.62 392.584 1069.14 392.584L1069.14 392.584ZM1048.8 411.474C1049.82 411.474 1050.7 412.277 1050.7 413.371 1050.7 414.392 1049.82 415.194 1048.8 415.194 1047.78 415.194 1046.9 414.392 1046.9 413.371 1046.9 412.277 1047.78 411.474 1048.8 411.474L1048.8 411.474ZM1034.1 398.856C1035.12 398.856 1036 399.659 1036 400.753 1036 401.774 1035.12 402.649 1034.1 402.649 1033.07 402.649 1032.2 401.774 1032.2 400.753 1032.27 399.659 1033.07 398.856 1034.1 398.856L1034.1 398.856ZM1055.97 400.68C1056.48 400.68 1056.92 401.117 1056.92 401.628 1056.92 402.139 1056.48 402.576 1055.97 402.576 1055.46 402.576 1055.02 402.139 1055.02 401.628 1055.02 401.117 1055.46 400.68 1055.97 400.68L1055.97 400.68ZM1037.46 388.135C1038.93 388.135 1040.17 389.302 1040.17 390.834 1040.17 392.292 1038.93 393.532 1037.46 393.532 1035.93 393.532 1034.76 392.292 1034.76 390.834 1034.68 389.302 1035.93 388.135 1037.46 388.135L1037.46 388.135ZM1043.61 396.887C1046.75 396.887 1049.39 399.44 1049.39 402.649 1049.39 405.785 1046.83 408.411 1043.61 408.411 1040.39 408.411 1037.83 405.858 1037.83 402.649 1037.83 399.513 1040.39 396.887 1043.61 396.887L1043.61 396.887ZM1044.78 379.31C1046.31 379.31 1047.48 380.477 1047.48 382.008 1047.48 383.467 1046.31 384.707 1044.78 384.707 1043.31 384.707 1042.07 383.467 1042.07 382.008 1042.14 380.55 1043.31 379.31 1044.78 379.31L1044.78 379.31ZM1058.75 385.801C1061.97 385.801 1064.53 388.354 1064.53 391.563 1064.53 394.772 1061.97 397.325 1058.75 397.325 1055.6 397.325 1052.97 394.772 1052.97 391.563 1052.97 388.354 1055.6 385.801 1058.75 385.801L1058.75 385.801ZM998.694 399.951C1000.23 399.951 1001.4 401.117 1001.4 402.649 1001.4 404.108 1000.23 405.348 998.694 405.348 997.231 405.348 995.988 404.108 995.988 402.649 995.988 401.117 997.158 399.951 998.694 399.951L998.694 399.951ZM990.063 396.158C990.575 396.158 991.013 396.595 991.013 397.106 991.013 397.617 990.575 398.054 990.063 398.054 989.551 398.054 989.112 397.617 989.112 397.106 989.112 396.595 989.551 396.158 990.063 396.158L990.063 396.158ZM969.801 415.048C970.825 415.048 971.703 415.924 971.703 416.945 971.703 417.966 970.825 418.841 969.801 418.841 968.777 418.841 967.899 417.966 967.899 416.945 967.899 415.924 968.777 415.048 969.801 415.048L969.801 415.048ZM976.896 404.254C977.408 404.254 977.847 404.691 977.847 405.202 977.847 405.713 977.408 406.15 976.896 406.15 976.384 406.15 975.945 405.713 975.945 405.202 975.945 404.691 976.457 404.254 976.896 404.254L976.896 404.254ZM979.749 389.375C982.967 389.375 985.528 391.928 985.528 395.137 985.528 398.346 982.967 400.899 979.749 400.899 976.53 400.899 973.97 398.346 973.97 395.137 973.97 391.928 976.603 389.375 979.749 389.375L979.749 389.375ZM921.011 384.926C922.035 384.926 922.913 385.801 922.913 386.822 922.913 387.843 922.108 388.718 921.011 388.718 919.987 388.718 919.109 387.843 919.109 386.822 919.182 385.801 919.987 384.926 921.011 384.926L921.011 384.926ZM882.974 385.655C883.413 385.436 883.998 385.655 884.218 386.093 884.437 386.53 884.218 387.114 883.779 387.333 883.34 387.551 882.755 387.333 882.535 386.895 882.316 386.384 882.535 385.874 882.974 385.655L882.974 385.655ZM1024.95 390.396C1025.47 390.396 1025.91 390.834 1025.91 391.344 1025.91 391.855 1025.47 392.292 1024.95 392.292 1024.44 392.292 1024 391.855 1024 391.344 1024 390.834 1024.44 390.396 1024.95 390.396L1024.95 390.396ZM1004.69 409.286C1005.72 409.286 1006.59 410.161 1006.59 411.183 1006.59 412.204 1005.72 413.079 1004.69 413.079 1003.67 413.079 1002.79 412.204 1002.79 411.183 1002.79 410.089 1003.67 409.286 1004.69 409.286L1004.69 409.286ZM1011.86 398.492C1012.37 398.492 1012.81 398.929 1012.81 399.44 1012.81 399.951 1012.37 400.388 1011.86 400.388 1011.35 400.388 1010.91 399.951 1010.91 399.44 1010.91 398.929 1011.35 398.492 1011.86 398.492L1011.86 398.492ZM1015.45 353.272C1018.66 353.272 1021.22 355.824 1021.22 359.034 1021.22 362.17 1018.66 364.795 1015.45 364.795 1012.3 364.795 1009.67 362.243 1009.67 359.034 1009.67 355.824 1012.3 353.272 1015.45 353.272L1015.45 353.272ZM562.074 343.425C563.098 343.425 563.976 344.228 563.976 345.249 563.976 346.27 563.098 347.145 562.074 347.145 561.05 347.145 560.172 346.343 560.172 345.249 560.172 344.228 561.05 343.425 562.074 343.425L562.074 343.425ZM566.536 335.183C566.975 334.965 567.56 335.183 567.779 335.621 567.999 336.059 567.779 336.642 567.341 336.861 566.902 337.08 566.316 336.861 566.097 336.423 565.878 335.986 566.097 335.402 566.536 335.183L566.536 335.183ZM523.964 344.155C524.403 343.936 524.988 344.155 525.207 344.592 525.427 345.103 525.207 345.613 524.768 345.832 524.329 346.051 523.744 345.832 523.525 345.395 523.305 344.884 523.525 344.373 523.964 344.155L523.964 344.155ZM521.55 332.558C522.94 331.974 524.549 332.558 525.134 333.944 525.719 335.329 525.134 336.934 523.744 337.517 522.354 338.101 520.745 337.517 520.16 336.132 519.575 334.746 520.233 333.141 521.55 332.558L521.55 332.558ZM529.011 331.172C529.962 330.734 531.059 331.172 531.498 332.12 531.937 333.068 531.498 334.162 530.547 334.6 529.596 335.038 528.499 334.6 528.06 333.652 527.694 332.704 528.133 331.61 529.011 331.172L529.011 331.172ZM620.958 361.732C621.982 361.732 622.787 362.534 622.787 363.556 622.787 364.577 621.982 365.452 620.958 365.452 619.934 365.452 619.056 364.65 619.056 363.556 619.129 362.534 619.934 361.732 620.958 361.732L620.958 361.732ZM625.493 353.49C625.932 353.272 626.517 353.49 626.737 353.928 626.956 354.366 626.737 354.949 626.298 355.168 625.859 355.387 625.274 355.168 625.054 354.73 624.762 354.22 624.981 353.709 625.493 353.49L625.493 353.49ZM603.037 344.082C603.476 343.863 604.061 344.082 604.28 344.519 604.5 344.957 604.28 345.54 603.841 345.759 603.402 345.978 602.817 345.759 602.598 345.322 602.378 344.884 602.598 344.3 603.037 344.082L603.037 344.082ZM582.921 362.389C583.433 362.17 583.945 362.389 584.165 362.826 584.384 363.337 584.165 363.847 583.726 364.066 583.214 364.285 582.702 364.066 582.482 363.629 582.263 363.191 582.409 362.607 582.921 362.389L582.921 362.389ZM601.208 347.437C604.134 346.124 607.572 347.437 608.888 350.281 610.205 353.199 608.962 356.554 606.036 357.939 603.11 359.252 599.745 358.012 598.355 355.095 597.039 352.178 598.282 348.75 601.208 347.437L601.208 347.437ZM580.507 350.792C581.897 350.208 583.506 350.792 584.091 352.178 584.75 353.563 584.091 355.168 582.775 355.751 581.385 356.335 579.776 355.751 579.19 354.439 578.532 353.053 579.117 351.448 580.507 350.792L580.507 350.792ZM576.996 346.853C577.508 346.634 578.02 346.853 578.24 347.291 578.459 347.801 578.24 348.312 577.801 348.531 577.289 348.75 576.777 348.531 576.557 348.093 576.338 347.583 576.557 347.072 576.996 346.853L576.996 346.853ZM587.968 349.479C588.919 349.041 590.016 349.479 590.455 350.427 590.894 351.375 590.455 352.469 589.504 352.907 588.553 353.345 587.456 352.907 587.017 351.959 586.578 351.011 587.017 349.917 587.968 349.479L587.968 349.479ZM641.22 343.352C642.244 343.352 643.122 344.228 643.122 345.249 643.122 346.27 642.317 347.145 641.22 347.145 640.196 347.145 639.391 346.27 639.391 345.249 639.391 344.228 640.196 343.352 641.22 343.352L641.22 343.352ZM624.25 323.951C625.713 323.951 626.956 325.118 626.956 326.65 626.956 328.182 625.713 329.349 624.25 329.349 622.714 329.349 621.543 328.182 621.543 326.65 621.543 325.118 622.787 323.951 624.25 323.951L624.25 323.951ZM622.714 330.807C623.226 330.807 623.664 331.245 623.664 331.756 623.664 332.266 623.226 332.704 622.714 332.704 622.201 332.704 621.763 332.266 621.763 331.756 621.763 331.172 622.201 330.807 622.714 330.807L622.714 330.807ZM743.554 411.11C745.017 411.11 746.26 412.35 746.26 413.808 746.26 415.267 745.017 416.507 743.554 416.507 742.018 416.507 740.848 415.267 740.848 413.808 740.848 412.35 742.018 411.11 743.554 411.11L743.554 411.11ZM734.923 407.39C735.435 407.39 735.873 407.828 735.873 408.338 735.873 408.849 735.435 409.286 734.923 409.286 734.41 409.286 733.972 408.849 733.972 408.338 734.045 407.828 734.41 407.39 734.923 407.39L734.923 407.39ZM714.587 426.207C715.611 426.207 716.489 427.083 716.489 428.104 716.489 429.125 715.685 430 714.587 430 713.563 430 712.759 429.125 712.759 428.104 712.759 427.083 713.563 426.207 714.587 426.207L714.587 426.207ZM721.756 415.486C722.268 415.486 722.707 415.924 722.707 416.434 722.707 416.945 722.268 417.382 721.756 417.382 721.244 417.382 720.805 416.945 720.805 416.434 720.878 415.851 721.244 415.486 721.756 415.486L721.756 415.486ZM724.682 400.534C727.827 400.534 730.461 403.087 730.461 406.296 730.461 409.432 727.9 412.058 724.682 412.058 721.463 412.058 718.903 409.505 718.903 406.296 718.903 403.16 721.463 400.534 724.682 400.534L724.682 400.534ZM665.944 396.085C666.968 396.085 667.846 396.96 667.846 397.981 667.846 399.002 666.968 399.878 665.944 399.878 664.92 399.878 664.042 399.002 664.042 397.981 664.042 396.96 664.92 396.085 665.944 396.085L665.944 396.085ZM670.406 387.843C670.845 387.624 671.43 387.843 671.65 388.281 671.869 388.791 671.65 389.302 671.211 389.521 670.772 389.739 670.187 389.521 669.967 389.083 669.748 388.645 669.967 388.062 670.406 387.843L670.406 387.843ZM648.023 378.507C648.535 378.289 649.047 378.507 649.266 378.945 649.486 379.456 649.266 379.966 648.827 380.185 648.315 380.404 647.803 380.185 647.584 379.747 647.364 379.237 647.511 378.726 648.023 378.507L648.023 378.507ZM627.834 396.814C628.273 396.595 628.858 396.814 629.077 397.252 629.297 397.69 629.077 398.273 628.638 398.492 628.2 398.711 627.614 398.492 627.395 398.054 627.176 397.617 627.395 397.033 627.834 396.814L627.834 396.814ZM778.446 405.348C779.909 405.348 781.152 406.515 781.152 408.046 781.152 409.578 779.909 410.745 778.446 410.745 776.91 410.745 775.739 409.578 775.739 408.046 775.739 406.515 776.91 405.348 778.446 405.348L778.446 405.348ZM646.194 381.862C649.12 380.55 652.485 381.789 653.875 384.707 655.191 387.624 653.875 390.979 651.022 392.365 648.096 393.678 644.658 392.365 643.341 389.521 641.951 386.603 643.268 383.175 646.194 381.862L646.194 381.862ZM625.42 385.218C626.81 384.634 628.346 385.218 629.004 386.53 629.589 387.916 629.004 389.521 627.614 390.104 626.225 390.688 624.615 390.104 624.03 388.718 623.445 387.333 624.03 385.801 625.42 385.218L625.42 385.218ZM772.521 389.01C773.033 389.01 773.472 389.448 773.472 389.958 773.472 390.469 773.033 390.906 772.521 390.906 772.009 390.906 771.57 390.469 771.57 389.958 771.57 389.448 772.009 389.01 772.521 389.01L772.521 389.01ZM769.887 401.628C770.399 401.628 770.838 402.066 770.838 402.576 770.838 403.087 770.399 403.524 769.887 403.524 769.375 403.524 768.936 403.087 768.936 402.576 768.936 401.993 769.302 401.628 769.887 401.628L769.887 401.628ZM621.982 381.206C622.421 380.987 623.006 381.206 623.226 381.644 623.445 382.081 623.226 382.665 622.787 382.884 622.348 383.102 621.763 382.884 621.543 382.446 621.251 382.008 621.47 381.425 621.982 381.206L621.982 381.206ZM632.881 383.832C633.832 383.394 634.929 383.832 635.368 384.78 635.807 385.728 635.368 386.822 634.417 387.26 633.466 387.697 632.369 387.26 631.93 386.312 631.564 385.363 632.003 384.269 632.881 383.832L632.881 383.832ZM749.552 420.445C750.576 420.445 751.381 421.248 751.381 422.342 751.381 423.363 750.576 424.165 749.552 424.165 748.528 424.165 747.65 423.363 747.65 422.342 747.65 421.248 748.455 420.445 749.552 420.445L749.552 420.445ZM756.721 409.724C757.233 409.724 757.672 410.161 757.672 410.672 757.672 411.183 757.233 411.62 756.721 411.62 756.209 411.62 755.77 411.183 755.77 410.672 755.77 410.161 756.135 409.724 756.721 409.724L756.721 409.724ZM759.573 394.772C762.792 394.772 765.352 397.325 765.352 400.534 765.352 403.743 762.792 406.296 759.573 406.296 756.355 406.296 753.795 403.743 753.795 400.534 753.795 397.325 756.355 394.772 759.573 394.772L759.573 394.772ZM729.729 375.225C731.265 375.225 732.435 376.392 732.435 377.924 732.435 379.456 731.265 380.623 729.729 380.623 728.266 380.623 727.023 379.456 727.023 377.924 727.023 376.465 728.266 375.225 729.729 375.225L729.729 375.225ZM723.804 358.888C724.316 358.888 724.755 359.325 724.755 359.836 724.755 360.346 724.316 360.784 723.804 360.784 723.292 360.784 722.853 360.346 722.853 359.836 722.853 359.325 723.292 358.888 723.804 358.888L723.804 358.888ZM721.171 371.506C721.683 371.506 722.122 371.943 722.122 372.454 722.122 372.964 721.683 373.402 721.171 373.402 720.659 373.402 720.22 372.964 720.22 372.454 720.22 371.87 720.659 371.506 721.171 371.506L721.171 371.506ZM700.836 390.323C701.86 390.323 702.737 391.125 702.737 392.219 702.737 393.24 701.86 394.043 700.836 394.043 699.812 394.043 698.934 393.24 698.934 392.219 698.934 391.125 699.812 390.323 700.836 390.323L700.836 390.323ZM686.133 377.705C687.157 377.705 688.035 378.507 688.035 379.601 688.035 380.623 687.157 381.498 686.133 381.498 685.109 381.498 684.231 380.623 684.231 379.601 684.304 378.58 685.109 377.705 686.133 377.705L686.133 377.705ZM708.004 379.601C708.516 379.601 708.955 380.039 708.955 380.55 708.955 381.06 708.516 381.498 708.004 381.498 707.492 381.498 707.053 381.06 707.053 380.55 707.053 380.039 707.492 379.601 708.004 379.601L708.004 379.601ZM689.498 366.983C690.961 366.983 692.204 368.15 692.204 369.682 692.204 371.141 690.961 372.381 689.498 372.381 687.962 372.381 686.791 371.214 686.791 369.682 686.791 368.15 687.962 366.983 689.498 366.983L689.498 366.983ZM695.642 375.736C698.787 375.736 701.421 378.289 701.421 381.498 701.421 384.634 698.861 387.26 695.642 387.26 692.424 387.26 689.863 384.707 689.863 381.498 689.863 378.361 692.424 375.736 695.642 375.736L695.642 375.736ZM696.886 358.231C698.349 358.231 699.592 359.398 699.592 360.93 699.592 362.389 698.422 363.629 696.886 363.629 695.349 363.629 694.179 362.389 694.179 360.93 694.179 359.398 695.349 358.231 696.886 358.231L696.886 358.231ZM669.236 358.304C670.772 358.304 671.942 359.544 671.942 361.003 671.942 362.534 670.772 363.701 669.236 363.701 667.773 363.701 666.529 362.534 666.529 361.003 666.456 359.544 667.7 358.304 669.236 358.304L669.236 358.304ZM671.723 352.615C672.235 352.615 672.674 353.053 672.674 353.563 672.674 354.074 672.235 354.512 671.723 354.512 671.211 354.512 670.772 354.074 670.772 353.563 670.845 353.053 671.211 352.615 671.723 352.615L671.723 352.615ZM667.7 365.16C668.212 365.16 668.65 365.598 668.65 366.108 668.65 366.619 668.212 367.056 667.7 367.056 667.188 367.056 666.749 366.619 666.749 366.108 666.749 365.598 667.114 365.16 667.7 365.16L667.7 365.16ZM710.857 364.65C714.075 364.65 716.635 367.202 716.635 370.412 716.635 373.621 714.075 376.173 710.857 376.173 707.711 376.173 705.078 373.621 705.078 370.412 705.078 367.202 707.638 364.65 710.857 364.65L710.857 364.65ZM393.833 306.301C394.272 306.082 394.858 306.301 395.077 306.739 395.296 307.249 395.077 307.76 394.638 307.978 394.199 308.197 393.614 307.978 393.395 307.468 393.102 307.03 393.321 306.52 393.833 306.301L393.833 306.301ZM371.377 296.892C371.889 296.673 372.401 296.892 372.62 297.33 372.84 297.84 372.62 298.351 372.182 298.57 371.743 298.789 371.158 298.57 370.938 298.132 370.719 297.695 370.938 297.111 371.377 296.892L371.377 296.892ZM351.261 315.272C351.7 315.053 352.285 315.272 352.505 315.71 352.724 316.147 352.505 316.731 352.066 316.95 351.627 317.168 351.042 316.95 350.822 316.512 350.53 316.001 350.749 315.418 351.261 315.272L351.261 315.272ZM501.873 323.733C503.336 323.733 504.58 324.972 504.58 326.431 504.58 327.963 503.336 329.13 501.873 329.13 500.337 329.13 499.167 327.963 499.167 326.431 499.093 324.972 500.337 323.733 501.873 323.733L501.873 323.733ZM369.548 300.247C372.474 298.934 375.912 300.174 377.229 303.092 378.546 306.009 377.229 309.437 374.376 310.75 371.45 312.063 368.012 310.75 366.696 307.906 365.379 304.988 366.622 301.56 369.548 300.247L369.548 300.247ZM348.847 303.602C350.237 303.019 351.847 303.602 352.432 304.915 353.017 306.301 352.432 307.906 351.042 308.489 349.652 309.145 348.043 308.489 347.458 307.176 346.872 305.863 347.458 304.259 348.847 303.602L348.847 303.602ZM495.875 307.395C496.387 307.395 496.826 307.833 496.826 308.343 496.826 308.854 496.387 309.291 495.875 309.291 495.363 309.291 494.924 308.854 494.924 308.343 494.924 307.833 495.363 307.395 495.875 307.395L495.875 307.395ZM493.242 320.013C493.754 320.013 494.192 320.451 494.192 320.961 494.192 321.472 493.754 321.909 493.242 321.909 492.73 321.909 492.291 321.472 492.291 320.961 492.291 320.451 492.73 320.013 493.242 320.013L493.242 320.013ZM345.336 299.664C345.775 299.445 346.36 299.664 346.58 300.101 346.799 300.539 346.58 301.122 346.141 301.341 345.629 301.56 345.117 301.341 344.897 300.904 344.678 300.393 344.897 299.883 345.336 299.664L345.336 299.664ZM356.309 302.289C357.259 301.852 358.357 302.289 358.796 303.238 359.234 304.186 358.796 305.28 357.845 305.717 356.894 306.155 355.797 305.717 355.358 304.769 354.919 303.821 355.358 302.654 356.309 302.289L356.309 302.289ZM472.906 338.903C473.93 338.903 474.808 339.706 474.808 340.727 474.808 341.748 474.004 342.623 472.906 342.623 471.882 342.623 471.078 341.821 471.078 340.727 471.078 339.706 471.882 338.903 472.906 338.903L472.906 338.903ZM480.075 328.109C480.587 328.109 481.026 328.546 481.026 329.057 481.026 329.568 480.587 330.005 480.075 330.005 479.563 330.005 479.124 329.568 479.124 329.057 479.124 328.546 479.563 328.109 480.075 328.109L480.075 328.109ZM482.928 313.157C486.073 313.157 488.706 315.71 488.706 318.919 488.706 322.055 486.073 324.681 482.928 324.681 479.709 324.681 477.149 322.055 477.149 318.919 477.149 315.783 479.782 313.157 482.928 313.157L482.928 313.157ZM453.083 293.61C454.619 293.61 455.79 294.85 455.79 296.309 455.79 297.84 454.619 299.007 453.083 299.007 451.62 299.007 450.377 297.84 450.377 296.309 450.377 294.85 451.62 293.61 453.083 293.61L453.083 293.61ZM447.158 277.272C447.67 277.272 448.109 277.71 448.109 278.221 448.109 278.731 447.67 279.169 447.158 279.169 446.646 279.169 446.207 278.731 446.207 278.221 446.281 277.71 446.646 277.272 447.158 277.272L447.158 277.272ZM444.525 289.89C445.037 289.89 445.476 290.328 445.476 290.839 445.476 291.349 445.037 291.787 444.525 291.787 444.013 291.787 443.574 291.349 443.574 290.839 443.574 290.328 444.013 289.89 444.525 289.89L444.525 289.89ZM424.19 308.708C425.214 308.708 426.092 309.583 426.092 310.604 426.092 311.625 425.214 312.5 424.19 312.5 423.166 312.5 422.288 311.698 422.288 310.604 422.361 309.583 423.166 308.708 424.19 308.708L424.19 308.708ZM409.56 296.163C410.584 296.163 411.462 296.965 411.462 297.986 411.462 299.007 410.584 299.883 409.56 299.883 408.536 299.883 407.658 299.08 407.658 297.986 407.658 296.965 408.463 296.163 409.56 296.163L409.56 296.163ZM431.358 297.986C431.87 297.986 432.309 298.424 432.309 298.934 432.309 299.445 431.87 299.883 431.358 299.883 430.846 299.883 430.407 299.445 430.407 298.934 430.407 298.424 430.846 297.986 431.358 297.986L431.358 297.986ZM412.852 285.368C414.315 285.368 415.558 286.535 415.558 288.067 415.558 289.599 414.315 290.766 412.852 290.766 411.316 290.766 410.145 289.599 410.145 288.067 410.145 286.608 411.389 285.368 412.852 285.368L412.852 285.368ZM419.07 294.194C422.215 294.194 424.848 296.746 424.848 299.956 424.848 303.165 422.288 305.717 419.07 305.717 415.851 305.717 413.291 303.165 413.291 299.956 413.291 296.746 415.851 294.194 419.07 294.194L419.07 294.194ZM420.24 276.616C421.776 276.616 422.946 277.783 422.946 279.315 422.946 280.773 421.776 282.013 420.24 282.013 418.777 282.013 417.533 280.846 417.533 279.315 417.533 277.783 418.777 276.616 420.24 276.616L420.24 276.616ZM392.59 276.689C394.126 276.689 395.296 277.856 395.296 279.388 395.296 280.846 394.126 282.086 392.59 282.086 391.127 282.086 389.884 280.846 389.884 279.388 389.884 277.929 391.127 276.689 392.59 276.689L392.59 276.689ZM395.15 271C395.662 271 396.101 271.438 396.101 271.948 396.101 272.459 395.662 272.896 395.15 272.896 394.638 272.896 394.199 272.459 394.199 271.948 394.199 271.438 394.638 271 395.15 271L395.15 271ZM391.054 283.618C391.566 283.618 392.005 284.056 392.005 284.566 392.005 285.077 391.566 285.514 391.054 285.514 390.542 285.514 390.103 285.077 390.103 284.566 390.103 283.983 390.542 283.618 391.054 283.618L391.054 283.618ZM434.211 283.034C437.43 283.034 439.99 285.587 439.99 288.796 439.99 291.933 437.43 294.558 434.211 294.558 431.066 294.558 428.432 292.005 428.432 288.796 428.432 285.66 431.066 283.034 434.211 283.034L434.211 283.034ZM313.298 313.886C316.223 312.573 319.661 313.813 320.978 316.731 322.295 319.648 320.978 323.003 318.125 324.389 315.199 325.702 311.761 324.462 310.445 321.544 309.128 318.627 310.445 315.272 313.298 313.886L313.298 313.886ZM271.969 346.27C272.408 346.051 272.993 346.27 273.212 346.707 273.432 347.218 273.212 347.728 272.773 347.947 272.335 348.166 271.749 347.947 271.53 347.437 271.311 347.072 271.53 346.489 271.969 346.27L271.969 346.27ZM249.586 336.934C250.024 336.715 250.61 336.934 250.829 337.372 251.049 337.882 250.829 338.393 250.39 338.612 249.951 338.83 249.366 338.612 249.147 338.174 248.927 337.663 249.074 337.153 249.586 336.934L249.586 336.934ZM229.397 355.241C229.836 355.022 230.421 355.241 230.64 355.678 230.86 356.116 230.64 356.7 230.201 356.918 229.689 357.137 229.177 356.918 228.958 356.481 228.738 356.043 228.958 355.46 229.397 355.241L229.397 355.241ZM224.276 383.54C225.812 383.54 226.983 384.707 226.983 386.239 226.983 387.697 225.812 388.937 224.276 388.937 222.813 388.937 221.57 387.697 221.57 386.239 221.57 384.78 222.813 383.54 224.276 383.54L224.276 383.54ZM247.684 340.289C250.61 338.976 254.048 340.216 255.364 343.134 256.681 346.051 255.437 349.479 252.512 350.792 249.586 352.105 246.148 350.792 244.831 347.947 243.514 345.03 244.831 341.602 247.684 340.289L247.684 340.289ZM226.983 343.644C228.373 343.061 229.982 343.644 230.567 344.957 231.152 346.343 230.567 347.947 229.177 348.531 227.788 349.187 226.178 348.531 225.593 347.218 225.008 345.832 225.593 344.228 226.983 343.644L226.983 343.644ZM218.351 367.202C218.863 367.202 219.302 367.64 219.302 368.15 219.302 368.661 218.863 369.099 218.351 369.099 217.839 369.099 217.4 368.661 217.4 368.15 217.4 367.64 217.839 367.202 218.351 367.202L218.351 367.202ZM215.718 379.82C216.23 379.82 216.669 380.258 216.669 380.768 216.669 381.279 216.23 381.717 215.718 381.717 215.206 381.717 214.767 381.279 214.767 380.768 214.767 380.258 215.206 379.82 215.718 379.82L215.718 379.82ZM223.472 339.633C223.984 339.414 224.496 339.633 224.715 340.07 224.935 340.508 224.715 341.091 224.276 341.31 223.764 341.529 223.252 341.31 223.033 340.873 222.813 340.435 223.033 339.851 223.472 339.633L223.472 339.633ZM234.444 342.258C235.395 341.821 236.492 342.258 236.931 343.206 237.37 344.155 236.931 345.249 235.98 345.686 235.029 346.124 233.932 345.686 233.493 344.738 233.127 343.79 233.493 342.696 234.444 342.258L234.444 342.258ZM195.383 398.638C196.407 398.638 197.285 399.513 197.285 400.534 197.285 401.555 196.407 402.43 195.383 402.43 194.359 402.43 193.481 401.555 193.481 400.534 193.481 399.513 194.359 398.638 195.383 398.638L195.383 398.638ZM180.68 386.02C181.704 386.02 182.509 386.895 182.509 387.916 182.509 388.937 181.704 389.812 180.68 389.812 179.656 389.812 178.778 388.937 178.778 387.916 178.851 386.895 179.656 386.02 180.68 386.02L180.68 386.02ZM202.551 387.916C203.063 387.916 203.502 388.354 203.502 388.864 203.502 389.375 203.063 389.812 202.551 389.812 202.039 389.812 201.6 389.375 201.6 388.864 201.6 388.281 202.039 387.916 202.551 387.916L202.551 387.916ZM184.045 375.298C185.508 375.298 186.751 376.465 186.751 377.997 186.751 379.456 185.581 380.695 184.045 380.695 182.509 380.695 181.339 379.456 181.339 377.997 181.339 376.538 182.509 375.298 184.045 375.298L184.045 375.298ZM190.189 384.123C193.408 384.123 195.968 386.676 195.968 389.885 195.968 393.095 193.408 395.647 190.189 395.647 187.044 395.647 184.411 393.095 184.411 389.885 184.411 386.676 186.971 384.123 190.189 384.123L190.189 384.123ZM191.36 366.546C192.896 366.546 194.066 367.786 194.066 369.245 194.066 370.703 192.896 371.943 191.36 371.943 189.897 371.943 188.653 370.703 188.653 369.245 188.727 367.786 189.897 366.546 191.36 366.546L191.36 366.546ZM163.71 366.619C165.173 366.619 166.416 367.786 166.416 369.317 166.416 370.849 165.173 372.016 163.71 372.016 162.247 372.016 161.003 370.849 161.003 369.317 161.003 367.859 162.247 366.619 163.71 366.619L163.71 366.619ZM166.27 360.93C166.782 360.93 167.221 361.368 167.221 361.878 167.221 362.389 166.782 362.826 166.27 362.826 165.758 362.826 165.319 362.389 165.319 361.878 165.392 361.368 165.758 360.93 166.27 360.93L166.27 360.93ZM162.174 373.548C162.686 373.548 163.125 373.985 163.125 374.496 163.125 375.007 162.686 375.444 162.174 375.444 161.662 375.444 161.223 375.007 161.223 374.496 161.296 373.912 161.662 373.548 162.174 373.548L162.174 373.548ZM154.127 365.817C155.152 365.817 156.029 366.692 156.029 367.713 156.029 368.734 155.225 369.609 154.127 369.609 153.103 369.609 152.226 368.807 152.226 367.713 152.299 366.619 153.103 365.817 154.127 365.817L154.127 365.817ZM205.404 372.964C208.623 372.964 211.183 375.59 211.183 378.726 211.183 381.935 208.623 384.488 205.404 384.488 202.186 384.488 199.626 381.935 199.626 378.726 199.552 375.59 202.186 372.964 205.404 372.964L205.404 372.964ZM154.274 385.29C154.786 385.29 155.225 385.728 155.225 386.239 155.225 386.749 154.786 387.187 154.274 387.187 153.762 387.187 153.323 386.749 153.323 386.239 153.323 385.728 153.762 385.29 154.274 385.29L154.274 385.29ZM137.815 367.567C138.327 367.567 138.766 368.005 138.766 368.515 138.766 369.026 138.327 369.463 137.815 369.463 137.303 369.463 136.865 369.026 136.865 368.515 136.865 367.932 137.303 367.567 137.815 367.567L137.815 367.567ZM111.848 375.882C112.36 375.882 112.799 376.319 112.799 376.83 112.799 377.34 112.36 377.778 111.848 377.778 111.336 377.778 110.897 377.34 110.897 376.83 110.897 376.246 111.336 375.882 111.848 375.882L111.848 375.882ZM103.509 368.661C104.972 368.661 106.216 369.828 106.216 371.36 106.216 372.818 104.972 374.058 103.509 374.058 101.973 374.058 100.803 372.818 100.803 371.36 100.729 369.901 101.973 368.661 103.509 368.661L103.509 368.661ZM134.743 369.828C137.889 369.828 140.522 372.381 140.522 375.59 140.522 378.726 137.962 381.352 134.743 381.352 131.525 381.352 128.965 378.726 128.965 375.59 128.891 372.381 131.525 369.828 134.743 369.828L134.743 369.828ZM114.481 364.285C116.017 364.285 117.188 365.452 117.188 366.983 117.188 368.442 116.017 369.682 114.481 369.682 113.018 369.682 111.775 368.515 111.775 366.983 111.775 365.525 112.945 364.285 114.481 364.285L114.481 364.285ZM105.484 338.757C105.996 338.757 106.435 339.195 106.435 339.706 106.435 340.216 105.996 340.654 105.484 340.654 104.972 340.654 104.533 340.216 104.533 339.706 104.606 339.195 104.972 338.757 105.484 338.757L105.484 338.757ZM102.851 351.375C103.363 351.375 103.802 351.813 103.802 352.323 103.802 352.834 103.363 353.272 102.851 353.272 102.339 353.272 101.9 352.834 101.9 352.323 101.9 351.74 102.339 351.375 102.851 351.375L102.851 351.375ZM112.945 359.252C113.457 359.252 113.896 359.69 113.896 360.201 113.896 360.711 113.457 361.149 112.945 361.149 112.433 361.149 111.994 360.711 111.994 360.201 111.994 359.69 112.433 359.252 112.945 359.252L112.945 359.252ZM121.796 366.181C122.82 366.181 123.698 366.983 123.698 368.005 123.698 369.026 122.893 369.901 121.796 369.901 120.772 369.901 119.967 369.099 119.967 368.005 119.967 366.983 120.772 366.181 121.796 366.181L121.796 366.181ZM82.5156 370.193C83.5397 370.193 84.4175 371.068 84.4175 372.089 84.4175 373.11 83.5397 373.985 82.5156 373.985 81.4915 373.985 80.6137 373.11 80.6137 372.089 80.6137 371.068 81.4915 370.193 82.5156 370.193L82.5156 370.193ZM67.886 357.575C68.91 357.575 69.7879 358.45 69.7879 359.471 69.7879 360.492 68.91 361.368 67.886 361.368 66.8619 361.368 65.9842 360.492 65.9842 359.471 65.9842 358.45 66.7887 357.575 67.886 357.575L67.886 357.575ZM89.6841 359.398C90.1961 359.398 90.635 359.836 90.635 360.346 90.635 360.857 90.1961 361.295 89.6841 361.295 89.172 361.295 88.7332 360.857 88.7332 360.346 88.7332 359.836 89.172 359.398 89.6841 359.398L89.6841 359.398ZM71.1777 346.853C72.6406 346.853 73.8841 348.093 73.8841 349.552 73.8841 351.084 72.7138 352.251 71.1777 352.251 69.6415 352.251 68.4712 351.084 68.4712 349.552 68.4712 348.093 69.7147 346.853 71.1777 346.853L71.1777 346.853ZM77.3221 355.605C80.5406 355.605 83.1007 358.158 83.1007 361.368 83.1007 364.577 80.5406 367.129 77.3221 367.129 74.1768 367.129 71.5434 364.577 71.5434 361.368 71.5434 358.158 74.1768 355.605 77.3221 355.605L77.3221 355.605ZM78.5656 338.028C80.1017 338.028 81.272 339.268 81.272 340.727 81.272 342.258 80.1017 343.425 78.5656 343.425 77.1026 343.425 75.8592 342.258 75.8592 340.727 75.8592 339.268 77.1026 338.028 78.5656 338.028L78.5656 338.028ZM50.9157 338.174C52.3786 338.174 53.6221 339.341 53.6221 340.873 53.6221 342.331 52.3786 343.571 50.9157 343.571 49.4527 343.571 48.2092 342.331 48.2092 340.873 48.2092 339.414 49.4527 338.174 50.9157 338.174L50.9157 338.174ZM39.9435 324.024C40.4555 324.024 40.8944 324.462 40.8944 324.972 40.8944 325.483 40.4555 325.921 39.9435 325.921 39.4314 325.921 38.9925 325.483 38.9925 324.972 38.9925 324.462 39.4314 324.024 39.9435 324.024L39.9435 324.024ZM53.4759 332.485C53.9878 332.485 54.4268 332.922 54.4268 333.433 54.4268 333.944 53.9878 334.381 53.4759 334.381 52.9638 334.381 52.5249 333.944 52.5249 333.433 52.5249 332.922 52.9638 332.485 53.4759 332.485L53.4759 332.485ZM49.3795 345.03C49.8916 345.03 50.3305 345.467 50.3305 345.978 50.3305 346.489 49.8916 346.926 49.3795 346.926 48.8675 346.926 48.4286 346.489 48.4286 345.978 48.4286 345.467 48.8675 345.03 49.3795 345.03L49.3795 345.03ZM47.8435 328.255C49.8916 328.255 51.574 329.932 51.574 331.974 51.574 334.017 49.8916 335.694 47.8435 335.694 45.7953 335.694 44.1129 334.017 44.1129 331.974 44.1129 329.932 45.7953 328.255 47.8435 328.255L47.8435 328.255ZM41.3333 337.372C42.3573 337.372 43.2352 338.174 43.2352 339.268 43.2352 340.289 42.4305 341.091 41.3333 341.091 40.3092 341.091 39.5046 340.289 39.5046 339.268 39.5046 338.174 40.3092 337.372 41.3333 337.372L41.3333 337.372ZM26.9962 330.88C28.0203 330.88 28.8981 331.756 28.8981 332.777 28.8981 333.798 28.0203 334.673 26.9962 334.673 25.9722 334.673 25.0945 333.798 25.0945 332.777 25.0945 331.756 25.9722 330.88 26.9962 330.88L26.9962 330.88ZM16.8287 334.673C17.8528 334.673 18.7306 335.548 18.7306 336.569 18.7306 337.59 17.9259 338.466 16.8287 338.466 15.8047 338.466 15 337.59 15 336.569 15 335.548 15.8047 334.673 16.8287 334.673L16.8287 334.673Z" fill="#C3DEEB" fill-rule="evenodd"/><path d="M792.857 280.311C793.883 280.311 794.762 281.185 794.762 282.204 794.762 283.224 793.883 284.098 792.857 284.098 791.831 284.098 790.952 283.224 790.952 282.204 790.952 281.185 791.831 280.311 792.857 280.311L792.857 280.311ZM923.211 284.607C926.362 284.607 929 287.156 929 290.361 929 293.492 926.362 296.114 923.211 296.114 919.987 296.114 917.423 293.565 917.423 290.361 917.423 287.156 919.987 284.607 923.211 284.607L923.211 284.607ZM835.649 301.139C837.115 301.139 838.36 302.304 838.36 303.833 838.36 305.29 837.115 306.528 835.649 306.528 834.11 306.528 832.938 305.29 832.938 303.833 832.938 302.304 834.11 301.139 835.649 301.139L835.649 301.139ZM827.003 297.352C827.516 297.352 827.955 297.789 827.955 298.298 827.955 298.808 827.516 299.245 827.003 299.245 826.49 299.245 826.05 298.808 826.05 298.298 826.123 297.789 826.49 297.352 827.003 297.352L827.003 297.352ZM806.632 316.213C807.658 316.213 808.538 317.087 808.538 318.107 808.538 319.126 807.732 320 806.632 320 805.607 320 804.801 319.126 804.801 318.107 804.801 317.087 805.607 316.213 806.632 316.213L806.632 316.213ZM813.813 305.435C814.326 305.435 814.766 305.872 814.766 306.382 814.766 306.892 814.326 307.329 813.813 307.329 813.3 307.329 812.861 306.892 812.861 306.382 812.934 305.872 813.3 305.435 813.813 305.435L813.813 305.435ZM816.744 290.506C819.895 290.506 822.533 293.055 822.533 296.259 822.533 299.464 819.968 302.013 816.744 302.013 813.52 302.013 810.956 299.464 810.956 296.259 810.956 293.055 813.52 290.506 816.744 290.506L816.744 290.506ZM757.905 286.137C758.931 286.137 759.81 287.011 759.81 288.03 759.81 289.05 758.931 289.924 757.905 289.924 756.879 289.924 756 289.05 756 288.03 756 286.938 756.879 286.137 757.905 286.137L757.905 286.137ZM870.601 295.313C872.066 295.313 873.312 296.551 873.312 298.007 873.312 299.536 872.066 300.702 870.601 300.702 869.062 300.702 867.89 299.536 867.89 298.007 867.89 296.551 869.062 295.313 870.601 295.313L870.601 295.313ZM864.665 279C865.178 279 865.618 279.437 865.618 279.947 865.618 280.457 865.178 280.893 864.665 280.893 864.153 280.893 863.713 280.457 863.713 279.947 863.713 279.437 864.153 279 864.665 279L864.665 279ZM862.028 291.599C862.541 291.599 862.98 292.036 862.98 292.545 862.98 293.055 862.541 293.492 862.028 293.492 861.515 293.492 861.075 293.055 861.075 292.545 861.075 292.036 861.441 291.599 862.028 291.599L862.028 291.599ZM841.657 310.387C842.683 310.387 843.562 311.261 843.562 312.281 843.562 313.3 842.683 314.174 841.657 314.174 840.632 314.174 839.752 313.373 839.752 312.281 839.752 311.261 840.632 310.387 841.657 310.387L841.657 310.387ZM848.838 299.682C849.351 299.682 849.791 300.119 849.791 300.629 849.791 301.139 849.351 301.576 848.838 301.576 848.325 301.576 847.886 301.139 847.886 300.629 847.886 300.119 848.325 299.682 848.838 299.682L848.838 299.682ZM851.696 284.753C854.92 284.753 857.485 287.302 857.485 290.506 857.485 293.638 854.92 296.259 851.696 296.259 848.472 296.259 845.907 293.71 845.907 290.506 845.907 287.375 848.472 284.753 851.696 284.753L851.696 284.753Z" fill="#FFFFFF" fill-rule="evenodd"/><path d="M514.857 264.315C515.883 264.315 516.762 265.193 516.762 266.216 516.762 267.239 515.883 268.116 514.857 268.116 513.831 268.116 512.952 267.239 512.952 266.216 512.952 265.193 513.831 264.315 514.857 264.315L514.857 264.315ZM645.211 268.554C648.362 268.554 651 271.185 651 274.328 651 277.544 648.435 280.102 645.211 280.102 641.987 280.102 639.423 277.544 639.423 274.328 639.423 271.185 641.987 268.554 645.211 268.554L645.211 268.554ZM557.649 285.144C559.188 285.144 560.36 286.387 560.36 287.849 560.36 289.383 559.188 290.553 557.649 290.553 556.183 290.553 554.938 289.383 554.938 287.849 554.938 286.387 556.11 285.144 557.649 285.144L557.649 285.144ZM549.003 281.417C549.516 281.417 549.955 281.856 549.955 282.367 549.955 282.879 549.516 283.317 549.003 283.317 548.49 283.317 548.05 282.879 548.05 282.367 548.123 281.783 548.49 281.417 549.003 281.417L549.003 281.417ZM528.632 300.273C529.658 300.273 530.538 301.077 530.538 302.1 530.538 303.123 529.658 304 528.632 304 527.607 304 526.727 303.196 526.727 302.1 526.801 301.15 527.607 300.273 528.632 300.273L528.632 300.273ZM535.813 289.456C536.326 289.456 536.766 289.895 536.766 290.406 536.766 290.918 536.326 291.357 535.813 291.357 535.3 291.357 534.861 290.918 534.861 290.406 534.934 289.895 535.3 289.456 535.813 289.456L535.813 289.456ZM538.671 274.547C541.895 274.547 544.46 277.105 544.46 280.321 544.46 283.464 541.895 286.095 538.671 286.095 535.52 286.095 532.882 283.464 532.882 280.321 532.956 277.105 535.52 274.547 538.671 274.547L538.671 274.547ZM479.905 270.089C480.931 270.089 481.81 270.966 481.81 271.989 481.81 273.013 480.931 273.889 479.905 273.889 478.879 273.889 478 273.086 478 271.989 478 270.966 478.806 270.089 479.905 270.089L479.905 270.089ZM592.601 279.371C594.066 279.371 595.312 280.54 595.312 282.075 595.312 283.537 594.139 284.779 592.601 284.779 591.062 284.779 589.89 283.537 589.89 282.075 589.89 280.54 591.062 279.371 592.601 279.371L592.601 279.371ZM586.665 263C587.178 263 587.618 263.438 587.618 263.95 587.618 264.462 587.178 264.9 586.665 264.9 586.153 264.9 585.713 264.462 585.713 263.95 585.713 263.365 586.153 263 586.665 263L586.665 263ZM583.954 275.57C584.467 275.57 584.907 276.009 584.907 276.521 584.907 277.032 584.467 277.471 583.954 277.471 583.441 277.471 583.002 277.032 583.002 276.521 583.075 276.009 583.441 275.57 583.954 275.57L583.954 275.57ZM563.657 294.499C564.683 294.499 565.562 295.376 565.562 296.399 565.562 297.423 564.757 298.299 563.657 298.299 562.632 298.299 561.826 297.423 561.826 296.399 561.826 295.376 562.632 294.499 563.657 294.499L563.657 294.499ZM570.838 283.683C571.351 283.683 571.791 284.121 571.791 284.633 571.791 285.144 571.351 285.583 570.838 285.583 570.325 285.583 569.886 285.144 569.886 284.633 569.886 284.121 570.325 283.683 570.838 283.683L570.838 283.683ZM573.696 268.701C576.847 268.701 579.485 271.258 579.485 274.474 579.485 277.69 576.92 280.248 573.696 280.248 570.472 280.248 567.907 277.69 567.907 274.474 567.907 271.332 570.472 268.701 573.696 268.701L573.696 268.701Z" fill="#FFFFFF" fill-rule="evenodd"/><path d="M231.659 215.313C232.68 215.313 233.554 216.116 233.554 217.21 233.554 218.231 232.68 219.107 231.659 219.107 230.639 219.107 229.764 218.231 229.764 217.21 229.764 216.189 230.639 215.313 231.659 215.313L231.659 215.313ZM361.242 219.544C364.449 219.544 367 222.098 367 225.308 367 228.518 364.449 231.071 361.242 231.071 358.109 231.071 355.485 228.518 355.485 225.308 355.485 222.098 358.109 219.544 361.242 219.544L361.242 219.544ZM274.149 236.105C275.68 236.105 276.846 237.345 276.846 238.804 276.846 240.336 275.68 241.504 274.149 241.504 272.692 241.504 271.453 240.336 271.453 238.804 271.525 237.345 272.692 236.105 274.149 236.105L274.149 236.105ZM265.622 232.384C266.132 232.384 266.569 232.822 266.569 233.333 266.569 233.843 266.132 234.281 265.622 234.281 265.112 234.281 264.675 233.843 264.675 233.333 264.747 232.822 265.112 232.384 265.622 232.384L265.622 232.384ZM245.361 251.206C246.381 251.206 247.256 252.082 247.256 253.103 247.256 254.125 246.381 255 245.361 255 244.341 255 243.466 254.198 243.466 253.103 243.539 252.082 244.341 251.206 245.361 251.206L245.361 251.206ZM252.503 240.482C253.014 240.482 253.451 240.92 253.451 241.431 253.451 241.941 253.014 242.379 252.503 242.379 251.993 242.379 251.556 241.941 251.556 241.431 251.629 240.92 251.993 240.482 252.503 240.482L252.503 240.482ZM255.346 225.527C258.553 225.527 261.103 228.08 261.103 231.29 261.103 234.427 258.553 237.053 255.346 237.053 252.212 237.053 249.588 234.5 249.588 231.29 249.588 228.153 252.212 225.527 255.346 225.527L255.346 225.527ZM196.895 221.076C197.915 221.076 198.717 221.952 198.717 222.973 198.717 223.995 197.915 224.87 196.895 224.87 195.875 224.87 195 224.068 195 222.973 195 221.952 195.802 221.076 196.895 221.076L196.895 221.076ZM308.986 230.342C310.444 230.342 311.683 231.509 311.683 233.041 311.683 234.5 310.517 235.74 308.986 235.74 307.456 235.74 306.29 234.573 306.29 233.041 306.29 231.582 307.456 230.342 308.986 230.342L308.986 230.342ZM303.083 214C303.593 214 304.031 214.438 304.031 214.948 304.031 215.459 303.593 215.897 303.083 215.897 302.573 215.897 302.136 215.459 302.136 214.948 302.136 214.438 302.5 214 303.083 214L303.083 214ZM300.387 226.621C300.897 226.621 301.334 227.059 301.334 227.569 301.334 228.08 300.897 228.518 300.387 228.518 299.876 228.518 299.439 228.08 299.439 227.569 299.512 226.986 299.876 226.621 300.387 226.621L300.387 226.621ZM280.125 245.443C281.146 245.443 282.02 246.319 282.02 247.34 282.02 248.361 281.219 249.237 280.125 249.237 279.105 249.237 278.23 248.361 278.23 247.34 278.23 246.319 279.105 245.443 280.125 245.443L280.125 245.443ZM287.268 234.719C287.778 234.719 288.215 235.157 288.215 235.667 288.215 236.178 287.778 236.616 287.268 236.616 286.758 236.616 286.32 236.178 286.32 235.667 286.393 235.084 286.758 234.719 287.268 234.719L287.268 234.719ZM290.183 219.763C293.317 219.763 295.941 222.317 295.941 225.527 295.941 228.737 293.39 231.29 290.183 231.29 286.976 231.29 284.425 228.737 284.425 225.527 284.425 222.317 286.976 219.763 290.183 219.763L290.183 219.763Z" fill="#FFFFFF" fill-rule="evenodd"/><path d="M76 305.566C108.288 296.604 120.634 305.421 131.884 315.476 139.262 322.107 145.179 332.235 154.895 334.349 179.074 339.595 193.538 311.614 214.869 305.566 231.233 300.903 249.422 307.315 265.859 302.87 277.547 299.737 285.655 288.734 296.54 283.561 311.442 276.42 329.559 281.739 343 266 324.226 277.149 309.251 272.194 287.335 277.513 278.569 279.553 266.151 291.285 257.531 293.908 245.039 297.697 227.872 284.727 215.381 288.516 194.78 294.709 179.659 335.442 155.844 326.77 147.517 323.71 136.924 309.793 129.473 305.056 117.054 297.26 92.3634 293.908 76 305.566L76 305.566Z" fill="#FFFFFF" fill-rule="evenodd"/><path d="M981 297.14C1013.41 288.047 1025.8 296.992 1037.09 307.193 1044.5 313.92 1050.44 324.195 1060.19 326.339 1084.46 331.662 1098.98 303.275 1120.39 297.14 1136.81 292.409 1155.07 298.914 1171.57 294.405 1183.3 291.226 1191.37 280.064 1202.37 274.815 1217.32 267.571 1235.51 272.967 1249 257 1230.16 268.31 1215.12 263.283 1193.05 268.606 1184.33 270.75 1171.79 282.577 1163.21 285.238 1150.67 289.156 1133.44 275.924 1120.9 279.768 1100.23 286.052 1085.05 327.374 1061.14 318.577 1052.78 315.472 1042.15 301.279 1034.67 296.548 1022.13 288.713 997.425 285.386 981 297.14L981 297.14Z" fill="#FFFFFF" fill-rule="evenodd"/><path d="M184.356 248.313C183.336 248.313 182.462 249.189 182.462 250.21 182.462 251.231 183.336 252.107 184.356 252.107 185.376 252.107 186.25 251.231 186.25 250.21 186.177 249.116 185.376 248.313 184.356 248.313L184.356 248.313ZM54.7552 252.544C51.5498 252.544 49 255.098 49 258.308 49 261.445 51.5498 264.071 54.7552 264.071 57.8878 264.071 60.5103 261.518 60.5103 258.308 60.5103 255.171 57.9606 252.544 54.7552 252.544L54.7552 252.544ZM141.812 269.105C140.282 269.105 139.116 270.272 139.116 271.804 139.116 273.263 140.282 274.504 141.812 274.504 143.268 274.504 144.507 273.336 144.507 271.804 144.507 270.272 143.268 269.105 141.812 269.105L141.812 269.105ZM150.335 265.384C149.825 265.384 149.388 265.822 149.388 266.333 149.388 266.843 149.825 267.281 150.335 267.281 150.845 267.281 151.282 266.843 151.282 266.333 151.282 265.749 150.845 265.384 150.335 265.384L150.335 265.384ZM170.588 284.206C169.568 284.206 168.693 285.082 168.693 286.103 168.693 287.125 169.568 288 170.588 288 171.607 288 172.482 287.125 172.482 286.103 172.482 285.082 171.607 284.206 170.588 284.206L170.588 284.206ZM163.448 273.409C162.938 273.409 162.501 273.847 162.501 274.358 162.501 274.868 162.938 275.306 163.448 275.306 163.958 275.306 164.395 274.868 164.395 274.358 164.395 273.847 163.958 273.409 163.448 273.409L163.448 273.409ZM160.607 258.527C157.401 258.527 154.852 261.08 154.852 264.29 154.852 267.5 157.401 270.053 160.607 270.053 163.74 270.053 166.362 267.5 166.362 264.29 166.362 261.08 163.812 258.527 160.607 258.527L160.607 258.527ZM219.106 254.077C218.086 254.077 217.285 254.879 217.285 255.973 217.285 256.995 218.086 257.87 219.106 257.87 220.126 257.87 221 256.995 221 255.973 220.927 254.879 220.126 254.077 219.106 254.077L219.106 254.077ZM107.062 263.342C105.605 263.342 104.366 264.582 104.366 266.041 104.366 267.5 105.532 268.74 107.062 268.74 108.592 268.74 109.757 267.5 109.757 266.041 109.757 264.582 108.519 263.342 107.062 263.342L107.062 263.342ZM112.963 247C112.453 247 112.016 247.438 112.016 247.948 112.016 248.459 112.453 248.897 112.963 248.897 113.473 248.897 113.91 248.459 113.91 247.948 113.91 247.365 113.473 247 112.963 247L112.963 247ZM115.585 259.548C115.075 259.548 114.638 259.986 114.638 260.496 114.638 261.007 115.075 261.445 115.585 261.445 116.095 261.445 116.532 261.007 116.532 260.496 116.532 259.986 116.095 259.548 115.585 259.548L115.585 259.548ZM135.838 278.443C134.818 278.443 133.944 279.319 133.944 280.34 133.944 281.361 134.745 282.237 135.838 282.237 136.858 282.237 137.732 281.361 137.732 280.34 137.732 279.319 136.858 278.443 135.838 278.443L135.838 278.443ZM128.698 267.646C128.188 267.646 127.751 268.084 127.751 268.594 127.751 269.105 128.188 269.543 128.698 269.543 129.208 269.543 129.645 269.105 129.645 268.594 129.645 268.084 129.208 267.646 128.698 267.646L128.698 267.646ZM125.857 252.763C122.725 252.763 120.102 255.317 120.102 258.527 120.102 261.664 122.652 264.29 125.857 264.29 129.063 264.29 131.612 261.737 131.612 258.527 131.612 255.317 129.063 252.763 125.857 252.763L125.857 252.763Z" fill="#FFFFFF" fill-rule="evenodd"/></g></svg>