<svg id="Capa_1" enable-background="new 0 0 496.762 496.762" height="512" viewBox="0 0 496.762 496.762" width="512" xmlns="http://www.w3.org/2000/svg"><g><g id="XMLID_117_"><g><path d="m206.538 76.894-8.33-10.96c-5.62-7.39-8.37-16.15-8.37-24.85 0-10.89 4.3-21.72 12.7-29.74 18.96-18.11 49.78-13.99 63.34 8.46l15.76 26.1c4.45 7.38 6.8 15.83 6.8 24.45v30 45.07h-81.9v-42.66z" fill="#b0e7c9"/></g></g><path d="m243.263 76.894-8.33-10.96c-5.62-7.39-8.37-16.15-8.37-24.85 0-10.89 4.3-21.72 12.7-29.74 3.039-2.903 6.394-5.228 9.923-7.005-14.812-7.401-33.559-5.497-46.647 7.005-8.4 8.02-12.7 18.85-12.7 29.74 0 8.7 2.75 17.46 8.37 24.85l8.33 10.96v25.87 42.66h36.724v-42.66z" fill="#91deb6"/><path d="m265.331 462.505-6.423 25.874c-2.729 10.992-18.322 10.992-21.051 0l-6.423-25.874-10.931-44.889h56.059z" fill="#b0e7c9"/><path d="m363.841 417.957 12.268 22.712c2.672 4.947 4.071 10.482 4.071 16.107v12.536c0 15.16-12.265 27.45-27.395 27.45h-8.704c-3.986 0-7.218-3.238-7.218-7.232v-19.284c0-1.363-.5-2.679-1.404-3.697l-14.546-16.381-29.855-39.236 61.577-30.082z" fill="#b0e7c9"/><path d="m357.474 489.53v-19.284c0-1.363-.5-2.679-1.404-3.697l-14.546-16.381-29.856-39.236 43.616-21.307-2.65-8.774-61.577 30.082 29.855 39.236 14.546 16.381c.904 1.018 1.404 2.334 1.404 3.697v19.284c0 3.994 3.232 7.232 7.218 7.232h8.704c2.769 0 5.461-.417 7.981-1.183-1.968-1.293-3.291-3.516-3.291-6.05z" fill="#91deb6"/><path d="m175.852 450.169-14.546 16.381c-.904 1.018-1.404 2.334-1.404 3.697v19.284c0 3.994-3.232 7.232-7.218 7.232h-8.704c-15.13 0-27.395-12.29-27.395-27.45v-12.536c0-5.625 1.399-11.16 4.071-16.107l12.268-22.712 13.295-30.797 50.912 36.431z" fill="#b0e7c9"/><path d="m138.778 470.503v-12.536c0-5.625 1.399-11.16 4.071-16.107l12.268-22.712 8.45-19.573-17.348-12.414-13.295 30.797-12.268 22.712c-2.672 4.947-4.071 10.482-4.071 16.107v12.536c0 15.16 12.265 27.45 27.395 27.45h8.704c1.179 0 2.307-.291 3.29-.793-10.068-4.06-17.196-13.928-17.196-25.467z" fill="#91deb6"/><g><path d="m152.518 122.444 23.33 29.21-57.97 14.08-23.55 15.53c-9.69 6.39-17.51 15.25-22.64 25.68l-8.63 17.55c-2.58 5.25-7.67 7.95-12.78 7.95-4.57 0-9.16-2.17-11.98-6.6-11.79-18.54-14.3-41.52-6.8-62.18l3.03-8.33c7.05-19.39 22.2-34.73 41.47-42l6.74-2.54c23.74-8.94 50.36-4.41 69.78 11.65z" fill="#b0e7c9"/></g><path d="m67.44 160.613 3.03-8.33c7.05-19.39 22.2-34.73 41.47-42l6.74-2.54c.37-.139.743-.266 1.114-.398-12.216-2.149-25.006-1.088-37.056 3.449l-6.74 2.54c-19.27 7.27-34.42 22.61-41.47 42l-3.03 8.33c-7.5 20.66-4.99 43.64 6.8 62.18 2.82 4.43 7.41 6.6 11.98 6.6 5.11 0 10.2-2.7 12.78-7.95l5.832-11.861c-7.007-16.394-7.631-34.993-1.45-52.02z" fill="#91deb6"/><path d="m378.883 165.738 23.548 15.522c9.695 6.391 17.512 15.259 22.643 25.689l8.629 17.541c4.904 9.969 18.801 10.73 24.761 1.357 11.79-18.542 14.302-41.525 6.795-62.184l-3.027-8.331c-7.046-19.391-22.194-34.731-41.471-41.995l-6.74-2.54c-24.851-9.364-52.844-3.961-72.444 13.984l-44.221 38.777z" fill="#b0e7c9"/><path d="m451.259 200.557-8.629-17.541c-5.131-10.43-12.948-19.298-22.643-25.689l-9.125-6.015c-9.427-6.214-20.405-9.667-31.691-9.969l-54.81-1.465-27.004 23.68 81.527 2.179 23.548 15.522c9.695 6.391 17.512 15.259 22.643 25.689l8.629 17.541c4.904 9.969 18.801 10.73 24.761 1.357 3.508-5.517 6.2-11.445 8.046-17.57-5.861 1.015-12.249-1.614-15.252-7.719z" fill="#91deb6"/><g><path d="m265.071 462.505h-33.378c-72.707 0-131.648-58.941-131.648-131.648v-98.852c0-72.707 58.941-131.648 131.648-131.648h33.378c72.707 0 131.648 58.941 131.648 131.648v98.852c0 72.707-58.941 131.648-131.648 131.648z" fill="#e8ad8c"/><g id="XMLID_291_"><g fill="#e19974"><path d="m395.718 215.741c-.623-5.054-1.536-10.018-2.715-14.878l-.563.168c-.071.021-.142.043-.212.067l-28.773 9.501-50.608 16.497c-3.938 1.284-6.09 5.517-4.807 9.455 1.032 3.167 3.971 5.178 7.129 5.178.771 0 1.555-.12 2.326-.371l50.636-16.506z"/><path d="m368.253 338.276-51.85-19.107c-3.889-1.431-8.198.558-9.631 4.444s.558 8.198 4.443 9.631l51.97 19.151c.08.029.161.058.242.084l28.695 9.476.827.307c1.192-4.872 2.116-9.866 2.749-14.933z"/><path d="m396.719 273.931h-47.517c-4.143 0-7.5 3.358-7.5 7.5s3.357 7.5 7.5 7.5h47.517z"/><path d="m282.638 430.234-19.905-56.43c-1.378-3.906-5.661-5.955-9.568-4.578-3.906 1.378-5.956 5.662-4.578 9.568l19.915 56.456 9.496 26.623c5.12-.499 10.169-1.289 15.1-2.357z"/><path d="m339.924 401.318-27.7-37.677c-2.455-3.337-7.148-4.054-10.485-1.6-3.338 2.454-4.054 7.148-1.601 10.485l27.779 37.785c.053.072.106.143.162.212l18.61 23.513.054.073c3.932-3.114 7.683-6.447 11.232-9.982z"/><path d="m238.867 377.362c-3.944-1.261-8.166.919-9.425 4.865l-15.335 48.058-9.747 26.317c-.021.056-.04.111-.06.167l-.941 2.68c4.916 1.078 9.954 1.882 15.059 2.393l.039-.113 9.776-26.395c.04-.107.077-.216.112-.325l15.388-48.222c1.259-3.946-.92-8.166-4.866-9.425z"/><path d="m193.792 363.679c-3.338-2.452-8.033-1.734-10.484 1.604l-26.468 36.036-18.062 22.8c3.549 3.535 7.31 6.874 11.242 9.988l.041-.054 18.625-23.531c.056-.071.11-.143.164-.215l26.547-36.144c2.451-3.338 1.733-8.033-1.605-10.484z"/><path d="m188.816 317.692-60.184 20.544-27.567 9.093c.637 5.099 1.568 10.125 2.771 15.025l1.068-.487 28.502-9.412 60.255-20.567c3.92-1.338 6.013-5.601 4.675-9.521-1.337-3.92-5.598-6.013-9.52-4.675z"/><path d="m277.75 100.96-9.203 26.738-17.337 41.837c-1.585 3.827.231 8.214 4.058 9.8.938.389 1.911.573 2.868.573 2.942 0 5.735-1.743 6.932-4.631l17.425-42.049c.059-.141.112-.285.163-.429l9.744-28.298.486-1.203c-4.945-1.064-10.001-1.847-15.136-2.338z"/><path d="m346.857 128.845c-.035.042-.07.082-.104.125l-18.558 23.447-34.087 38.908c-2.729 3.116-2.416 7.854.699 10.583 1.424 1.247 3.186 1.859 4.939 1.859 2.086 0 4.161-.865 5.645-2.558l34.21-39.049c.082-.094.162-.19.239-.288l18.235-23.039c-3.543-3.537-7.291-6.87-11.218-9.988z"/><path d="m228.341 128.066c-.017-.05-.033-.101-.05-.15l-9.281-26.955c-5.107.488-10.137 1.265-15.056 2.32l.348 1.041 9.781 28.404 12.925 40.283c1.021 3.183 3.968 5.21 7.14 5.21.759 0 1.532-.116 2.293-.36 3.944-1.266 6.115-5.489 4.85-9.433z"/><path d="m156.83 161.756 29.699 40.746c1.468 2.015 3.751 3.083 6.067 3.083 1.532 0 3.079-.468 4.411-1.439 3.348-2.44 4.083-7.131 1.644-10.479l-29.787-40.866c-.059-.081-.119-.159-.18-.237l-18.64-23.551-.132-.18c-3.928 3.118-7.679 6.462-11.224 10.001z"/><path d="m178.09 224.62-44.809-14.031-28.656-9.463-.862-.312c-1.184 4.874-2.101 9.858-2.726 14.927l27.596 9.109c.037.012.073.024.11.036l44.864 14.048c.746.234 1.501.345 2.243.345 3.192 0 6.151-2.054 7.155-5.261 1.238-3.953-.963-8.16-4.915-9.398z"/><path d="m196.307 273.931h-96.262v15h96.262c4.142 0 7.5-3.358 7.5-7.5s-3.357-7.5-7.5-7.5z"/></g><g><path d="m366.778 232.004v98.85c0 56.14-45.51 101.65-101.65 101.65h-33.49c-56.14 0-101.65-45.51-101.65-101.65v-98.85c0-56.14 45.51-101.65 101.65-101.65h33.49c56.14 0 101.65 45.51 101.65 101.65z" fill="#e19974"/></g><g><g><path d="m265.129 440.004h-33.49c-60.186 0-109.15-48.964-109.15-109.15v-98.85c0-60.186 48.965-109.15 109.15-109.15h33.49c60.186 0 109.149 48.964 109.149 109.15v98.85c0 60.186-48.964 109.15-109.149 109.15zm-33.491-302.15c-51.915 0-94.15 42.235-94.15 94.15v98.85c0 51.915 42.236 94.15 94.15 94.15h33.49c51.914 0 94.149-42.235 94.149-94.15v-98.85c0-51.915-42.235-94.15-94.149-94.15z" fill="#dc8758"/></g></g></g><g><path d="m280.515 338.585h-64.267c-2.752 0-5.284-1.508-6.595-3.928l-26.896-49.654c-1.207-2.229-1.207-4.916 0-7.145l26.896-49.654c1.311-2.42 3.842-3.928 6.595-3.928h64.267c2.752 0 5.284 1.508 6.595 3.928l26.896 49.654c1.207 2.229 1.207 4.916 0 7.145l-26.896 49.654c-1.31 2.42-3.843 3.928-6.595 3.928zm-59.799-15h55.333l22.834-42.154-22.834-42.154h-55.333l-22.834 42.154z" fill="#dc8758"/></g><g><path d="m280.515 239.277h-64.267c-2.752 0-5.284-1.508-6.595-3.928l-26.896-49.654c-1.207-2.229-1.207-4.916 0-7.145l26.896-49.654c1.973-3.642 6.523-4.996 10.167-3.022 3.642 1.973 4.995 6.525 3.022 10.167l-24.961 46.082 22.834 42.154h55.333l22.834-42.154-24.962-46.082c-1.973-3.642-.619-8.194 3.022-10.167 3.644-1.973 8.193-.62 10.167 3.022l26.896 49.654c1.207 2.229 1.207 4.916 0 7.145l-26.896 49.654c-1.309 2.42-3.842 3.928-6.594 3.928z" fill="#dc8758"/></g><g><path d="m280.509 437.895c-1.206 0-2.43-.292-3.565-.907-3.642-1.973-4.995-6.525-3.022-10.167l24.962-46.082-22.834-42.154h-55.333l-22.834 42.154 24.961 46.082c1.973 3.642.62 8.194-3.022 10.167-3.644 1.973-8.195.619-10.167-3.022l-26.896-49.654c-1.207-2.229-1.207-4.916 0-7.145l26.896-49.654c1.311-2.42 3.842-3.928 6.595-3.928h64.267c2.752 0 5.284 1.508 6.595 3.928l26.896 49.654c1.207 2.229 1.207 4.916 0 7.145l-26.896 49.654c-1.359 2.506-3.939 3.929-6.603 3.929z" fill="#dc8758"/></g><g><path d="m352.634 388.351h-44.688c-4.143 0-7.5-3.358-7.5-7.5s3.357-7.5 7.5-7.5h44.688c4.143 0 7.5 3.358 7.5 7.5s-3.358 7.5-7.5 7.5z" fill="#dc8758"/></g><g><path d="m365.779 289.043h-57.834c-4.143 0-7.5-3.358-7.5-7.5s3.357-7.5 7.5-7.5h57.834c4.143 0 7.5 3.358 7.5 7.5s-3.357 7.5-7.5 7.5z" fill="#dc8758"/></g><g><path d="m353.694 189.623h-45.749c-4.143 0-7.5-3.358-7.5-7.5s3.357-7.5 7.5-7.5h45.749c4.143 0 7.5 3.358 7.5 7.5s-3.357 7.5-7.5 7.5z" fill="#dc8758"/></g><g><path d="m188.818 388.351h-44.688c-4.142 0-7.5-3.358-7.5-7.5s3.358-7.5 7.5-7.5h44.688c4.142 0 7.5 3.358 7.5 7.5s-3.358 7.5-7.5 7.5z" fill="#dc8758"/></g><g><path d="m188.818 289.043h-57.834c-4.142 0-7.5-3.358-7.5-7.5s3.358-7.5 7.5-7.5h57.834c4.142 0 7.5 3.358 7.5 7.5s-3.358 7.5-7.5 7.5z" fill="#dc8758"/></g><g><path d="m188.818 189.623h-45.748c-4.142 0-7.5-3.358-7.5-7.5s3.358-7.5 7.5-7.5h45.748c4.142 0 7.5 3.358 7.5 7.5s-3.358 7.5-7.5 7.5z" fill="#dc8758"/></g></g></g></svg>