<svg width="1282" height="118" xmlns="http://www.w3.org/2000/svg" xmlns:xlink="http://www.w3.org/1999/xlink" overflow="hidden"><defs><clipPath id="clip0"><rect x="-1" y="1" width="1282" height="118"/></clipPath></defs><g clip-path="url(#clip0)" transform="translate(1 -1)"><path d="M0 95.3988C61.8021 99.31 122.8 108.757 185.407 107.175 258.326 105.316 323.054 87.4268 395.9 85.3536 440.587 84.0926 481.399 95.6767 525.94 97.5147 563.753 99.0749 602.663 92.7272 639.963 95.3988 696.719 99.4596 744.698 115.19 802.258 117.349 853.236 119.272 902.092 106.961 953.363 107.175 1002.37 107.389 1048.37 121.431 1096.71 118.631 1140.89 116.066 1167.22 98.3269 1208.69 92.4066 1230.7 89.2648 1256.23 92.4066 1280 92.4066L1280 2 0 2 0 95.3988Z" fill="#4A8BCC" fill-rule="evenodd"/></g></svg>